<svg xmlns="http://www.w3.org/2000/svg" width="1053" height="787" viewBox="0 0 1053 787" fill="none">
  <path d="M763.278 561.334C617.583 560.891 477.979 502.813 374.955 399.789C271.931 296.765 213.854 157.161 213.41 11.4665C213.299 -45.2751 196.38 -100.701 164.793 -147.831C133.198 -194.96 88.3539 -231.667 35.911 -253.329C-16.5237 -274.991 -74.2062 -280.629 -129.846 -269.529C-185.487 -258.437 -236.59 -231.104 -276.712 -190.982C-316.83 -150.864 -344.163 -99.7603 -355.255 -44.1201C-366.355 11.5201 -360.717 69.2029 -339.055 121.638C-317.394 174.081 -280.686 218.925 -233.557 250.52C-186.428 282.106 -131.001 299.025 -74.2639 299.14C-1.63856 298.803 70.3414 312.863 137.505 340.5C204.664 368.141 265.689 408.814 317.042 460.168C368.396 511.522 409.069 572.546 436.71 639.705C464.348 706.869 478.403 778.845 478.07 851.474C478.181 908.207 495.104 963.638 526.691 1010.77C558.285 1057.9 603.13 1094.6 655.573 1116.27C708.007 1137.93 765.69 1143.57 821.33 1132.47C876.971 1121.37 928.074 1094.04 968.192 1053.92C1008.31 1013.8 1035.65 962.697 1046.74 907.057C1057.84 851.417 1052.2 793.734 1030.54 741.299C1008.88 688.856 972.17 644.012 925.041 612.417C877.912 580.831 822.481 563.907 765.744 563.8L763.278 561.334Z" fill="#605DEC"/>
</svg>