<svg xmlns="http://www.w3.org/2000/svg" width="" height="" viewBox="0 0 1411 787" fill="none">
<path d="M630.72 230.547C579.93 424.086 454.617 589.67 282.155 691.136C109.692 792.603 -95.914 821.71 -289.759 772.1C-365.232 752.696 -444.747 756.092 -518.286 781.846C-591.828 807.61 -656.08 854.58 -702.947 916.836C-749.812 979.081 -777.184 1053.82 -781.598 1131.62C-786.024 1209.41 -767.294 1286.77 -727.779 1353.93C-688.267 1421.09 -629.746 1475.04 -559.598 1508.95C-489.452 1542.88 -410.824 1555.26 -333.651 1544.53C-256.468 1533.8 -184.202 1500.45 -125.96 1448.68C-67.7284 1396.91 -26.1377 1329.06 -6.43522 1253.67C18.1406 1157 61.633 1066.15 121.517 986.383C181.405 906.623 256.504 839.509 342.47 788.932C428.437 738.354 523.578 705.309 622.387 691.702C721.2 678.102 821.73 684.217 918.171 709.684C993.633 729.085 1073.16 725.686 1146.7 699.932C1220.24 674.168 1284.49 627.198 1331.36 564.942C1378.22 502.697 1405.59 427.954 1410.01 350.159C1414.43 272.367 1395.7 195.01 1356.19 127.853C1316.68 60.6878 1258.16 6.74179 1188.01 -27.1756C1117.86 -61.1039 1039.23 -73.4829 962.06 -62.7518C884.877 -52.0235 812.611 -18.6751 754.369 33.094C696.138 84.8659 654.539 152.726 634.848 228.118L630.72 230.547Z" fill="#E5CCFF"/>
</svg>