<svg width="209" height="293" viewBox="0 0 209 293" fill="none" xmlns="http://www.w3.org/2000/svg">
<path d="M152.1 175.575C122.503 174.501 94.5331 161.791 74.2998 140.221C54.0665 118.652 43.213 89.9746 44.1099 60.453C44.4719 48.956 41.4099 37.612 35.3118 27.8499C29.212 18.0877 20.3498 10.3476 9.84178 5.60446C-0.664555 0.861345 -12.3456 -0.670808 -23.7252 1.20219C-35.1047 3.07352 -45.6725 8.26609 -54.096 16.124C-62.5186 23.9811 -68.4181 34.1503 -71.0486 45.3484C-73.6808 56.5464 -72.9261 68.2714 -68.8804 79.0414C-64.8347 89.813 -57.6808 99.1468 -48.3197 105.867C-38.9585 112.585 -27.8121 116.387 -16.2856 116.794C-1.52813 117.216 13.0007 120.551 26.459 126.604C39.9165 132.658 52.0391 141.311 62.1246 152.063C72.2102 162.815 80.0602 175.453 85.221 189.247C90.381 203.041 92.7488 217.719 92.1891 232.432C91.8272 243.927 94.89 255.272 100.988 265.034C107.088 274.797 115.95 282.537 126.458 287.28C136.964 292.023 148.646 293.555 160.025 291.682C171.405 289.811 181.972 284.618 190.395 276.761C198.819 268.903 204.718 258.734 207.349 247.536C209.981 236.338 209.226 224.613 205.18 213.843C201.135 203.071 193.981 193.737 184.62 187.018C175.258 180.3 164.111 176.496 152.585 176.091L152.1 175.575Z" fill="#4787F3" fill-opacity="0.2"/>
</svg>
