<svg width="283" height="293" viewBox="0 0 283 293" fill="none" xmlns="http://www.w3.org/2000/svg">
<path d="M225.621 175.575C196.023 174.501 168.054 161.791 147.82 140.221C127.587 118.652 116.733 89.9746 117.63 60.453C117.992 48.956 114.93 37.612 108.832 27.8499C102.733 18.0877 93.8703 10.3476 83.3623 5.60446C72.856 0.861345 61.1749 -0.670808 49.7953 1.20219C38.4158 3.07352 27.848 8.26609 19.4245 16.124C11.0019 23.9811 5.10242 34.1503 2.4719 45.3484C-0.16029 56.5464 0.594388 68.2714 4.64013 79.0414C8.68581 89.813 15.8397 99.1468 25.2009 105.867C34.562 112.585 45.7084 116.387 57.2349 116.794C71.9924 117.216 86.5212 120.551 99.9795 126.604C113.437 132.658 125.56 141.311 135.645 152.063C145.731 162.815 153.581 175.453 158.742 189.247C163.901 203.041 166.269 217.719 165.71 232.432C165.348 243.927 168.41 255.272 174.509 265.034C180.608 274.797 189.471 282.537 199.979 287.28C210.485 292.023 222.166 293.555 233.546 291.682C244.925 289.811 255.493 284.618 263.916 276.761C272.339 268.903 278.239 258.734 280.869 247.536C283.501 236.338 282.746 224.613 278.701 213.843C274.655 203.071 267.501 193.737 258.14 187.018C248.779 180.3 237.632 176.496 226.105 176.091L225.621 175.575Z" fill="#4787F3" fill-opacity="0.2"/>
</svg>
