<svg width="261" height="48" viewBox="0 0 261 48" fill="none" xmlns="http://www.w3.org/2000/svg">
<path d="M117.742 37.42C114.662 37.42 112.016 36.804 109.804 35.572C107.62 34.312 105.94 32.548 104.764 30.28C103.588 27.984 103 25.282 103 22.174C103 19.066 103.588 16.378 104.764 14.11C105.94 11.842 107.62 10.092 109.804 8.86C112.016 7.6 114.662 6.97 117.742 6.97C119.73 6.97 121.606 7.278 123.37 7.894C125.162 8.51 126.632 9.392 127.78 10.54L126.016 14.824C124.756 13.76 123.468 12.99 122.152 12.514C120.836 12.01 119.422 11.758 117.91 11.758C114.914 11.758 112.632 12.668 111.064 14.488C109.496 16.28 108.712 18.842 108.712 22.174C108.712 25.506 109.496 28.082 111.064 29.902C112.632 31.722 114.914 32.632 117.91 32.632C119.422 32.632 120.836 32.394 122.152 31.918C123.468 31.414 124.756 30.63 126.016 29.566L127.78 33.85C126.632 34.97 125.162 35.852 123.37 36.496C121.606 37.112 119.73 37.42 117.742 37.42ZM139.858 37.42C137.73 37.42 135.882 36.986 134.314 36.118C132.746 35.25 131.528 34.018 130.66 32.422C129.792 30.798 129.358 28.894 129.358 26.71C129.358 24.526 129.792 22.636 130.66 21.04C131.528 19.444 132.746 18.212 134.314 17.344C135.882 16.476 137.73 16.042 139.858 16.042C141.986 16.042 143.834 16.476 145.402 17.344C146.97 18.212 148.188 19.444 149.056 21.04C149.924 22.636 150.358 24.526 150.358 26.71C150.358 28.894 149.924 30.798 149.056 32.422C148.188 34.018 146.97 35.25 145.402 36.118C143.834 36.986 141.986 37.42 139.858 37.42ZM139.858 33.43C141.426 33.43 142.686 32.87 143.638 31.75C144.59 30.602 145.066 28.922 145.066 26.71C145.066 24.47 144.59 22.804 143.638 21.712C142.686 20.592 141.426 20.032 139.858 20.032C138.29 20.032 137.03 20.592 136.078 21.712C135.126 22.804 134.65 24.47 134.65 26.71C134.65 28.922 135.126 30.602 136.078 31.75C137.03 32.87 138.29 33.43 139.858 33.43ZM154.691 37V16.462H159.815V19.654C160.515 18.478 161.453 17.582 162.629 16.966C163.833 16.35 165.177 16.042 166.661 16.042C171.505 16.042 173.927 18.856 173.927 24.484V37H168.677V24.736C168.677 23.14 168.369 21.978 167.753 21.25C167.165 20.522 166.241 20.158 164.981 20.158C163.441 20.158 162.209 20.648 161.285 21.628C160.389 22.58 159.941 23.854 159.941 25.45V37H154.691ZM179.259 37V16.462H184.383V19.654C185.083 18.478 186.021 17.582 187.197 16.966C188.401 16.35 189.745 16.042 191.229 16.042C196.073 16.042 198.495 18.856 198.495 24.484V37H193.245V24.736C193.245 23.14 192.937 21.978 192.321 21.25C191.733 20.522 190.809 20.158 189.549 20.158C188.009 20.158 186.777 20.648 185.853 21.628C184.957 22.58 184.509 23.854 184.509 25.45V37H179.259ZM213.95 37.42C211.626 37.42 209.624 36.986 207.944 36.118C206.264 35.25 204.962 34.018 204.038 32.422C203.142 30.826 202.694 28.936 202.694 26.752C202.694 24.624 203.128 22.762 203.996 21.166C204.892 19.57 206.11 18.324 207.65 17.428C209.218 16.504 210.996 16.042 212.984 16.042C215.896 16.042 218.192 16.966 219.872 18.814C221.58 20.662 222.434 23.182 222.434 26.374V27.928H207.734C208.126 31.596 210.226 33.43 214.034 33.43C215.182 33.43 216.33 33.262 217.478 32.926C218.626 32.562 219.676 32.002 220.628 31.246L222.098 34.774C221.118 35.586 219.886 36.23 218.402 36.706C216.918 37.182 215.434 37.42 213.95 37.42ZM213.194 19.612C211.654 19.612 210.408 20.088 209.456 21.04C208.504 21.992 207.93 23.28 207.734 24.904H218.066C217.954 23.196 217.478 21.894 216.638 20.998C215.826 20.074 214.678 19.612 213.194 19.612ZM236.083 37.42C233.927 37.42 232.051 36.986 230.455 36.118C228.859 35.222 227.627 33.962 226.759 32.338C225.891 30.714 225.457 28.81 225.457 26.626C225.457 24.442 225.891 22.566 226.759 20.998C227.627 19.402 228.859 18.184 230.455 17.344C232.051 16.476 233.927 16.042 236.083 16.042C237.399 16.042 238.701 16.252 239.989 16.672C241.277 17.092 242.341 17.68 243.181 18.436L241.627 22.09C240.899 21.446 240.073 20.956 239.149 20.62C238.253 20.284 237.385 20.116 236.545 20.116C234.725 20.116 233.311 20.69 232.303 21.838C231.323 22.958 230.833 24.568 230.833 26.668C230.833 28.74 231.323 30.378 232.303 31.582C233.311 32.758 234.725 33.346 236.545 33.346C237.357 33.346 238.225 33.178 239.149 32.842C240.073 32.506 240.899 32.002 241.627 31.33L243.181 35.026C242.341 35.754 241.263 36.342 239.947 36.79C238.659 37.21 237.371 37.42 236.083 37.42ZM255.892 37.42C250.46 37.42 247.744 34.732 247.744 29.356V20.41H243.796V16.462H247.744V10.33H252.994V16.462H259.21V20.41H252.994V29.062C252.994 30.406 253.288 31.414 253.876 32.086C254.464 32.758 255.416 33.094 256.732 33.094C257.124 33.094 257.53 33.052 257.95 32.968C258.37 32.856 258.804 32.744 259.252 32.632L260.05 36.496C259.546 36.776 258.902 37 258.118 37.168C257.362 37.336 256.62 37.42 255.892 37.42Z" fill="#3D3ACE"/>
<path d="M22.5727 38.5023C20.6936 37.6929 19.2112 36.1727 18.449 34.2739C17.6869 32.3752 17.7071 30.2519 18.5051 28.368C18.8166 27.6346 18.9039 26.8255 18.756 26.0426C18.608 25.2597 18.2313 24.5383 17.6736 23.9692C17.1159 23.4002 16.4021 23.0092 15.6224 22.8456C14.8426 22.6819 14.0319 22.753 13.2924 23.0498C12.553 23.3466 11.9182 23.8557 11.468 24.5131C11.0177 25.1704 10.7723 25.9464 10.7628 26.743C10.7532 27.5398 10.9799 28.3214 11.4142 28.9894C11.8486 29.6573 12.471 30.1815 13.2031 30.496C14.1428 30.8923 14.9948 31.471 15.7097 32.1984C16.4245 32.9258 16.9882 33.7877 17.3681 34.7342C17.748 35.6807 17.9366 36.6931 17.923 37.7129C17.9094 38.7327 17.6939 39.7397 17.2889 40.6758C16.9774 41.4091 16.8902 42.2183 17.0381 43.0012C17.1861 43.7841 17.5627 44.5055 18.1205 45.0745C18.6781 45.6435 19.3919 46.0346 20.1717 46.1982C20.9514 46.3619 21.7621 46.2908 22.5015 45.994C23.241 45.6972 23.8759 45.1881 24.3261 44.5307C24.7764 43.8734 25.0218 43.0974 25.0313 42.3007C25.0409 41.504 24.8142 40.7224 24.3799 40.0544C23.9455 39.3865 23.323 38.8621 22.5909 38.5478L22.5727 38.5023Z" fill="#AA55FF"/>
<path fill-rule="evenodd" clip-rule="evenodd" d="M68.9092 12.0522V6.92822H74.7892V12.0522H68.9092ZM69.2452 37.0002V16.4622H74.4952V37.0002H69.2452ZM16.2165 37.7482C15.6309 37.5296 14.9574 37.4202 14.196 37.4202C11.34 37.4202 8.848 36.7902 6.72 35.5302C4.592 34.2702 2.94 32.5062 1.764 30.2382C0.588 27.9422 0 25.2542 0 22.1742C0 19.0662 0.588 16.3782 1.764 14.1102C2.94 11.8422 4.592 10.0922 6.72 8.86022C8.848 7.60022 11.354 6.97022 14.238 6.97022C17.122 6.97022 19.628 7.60022 21.756 8.86022C23.884 10.0922 25.536 11.8422 26.712 14.1102C27.888 16.3782 28.476 19.0522 28.476 22.1322C28.476 25.4922 27.776 28.3762 26.376 30.7842C25.2273 32.8003 23.7057 34.3649 21.8112 35.4782L19.8679 30.7587C20.1185 30.5218 20.3559 30.2643 20.58 29.9862C22.092 28.1102 22.848 25.5062 22.848 22.1742C22.848 18.8142 22.092 16.2102 20.58 14.3622C19.096 12.5142 16.982 11.5902 14.238 11.5902C11.522 11.5902 9.408 12.5142 7.896 14.3622C6.384 16.2102 5.628 18.8142 5.628 22.1742C5.628 25.5062 6.384 28.1102 7.896 29.9862C9.39704 31.8486 11.4914 32.7866 14.179 32.8001L16.2165 37.7482ZM31.0026 16.4622L39.1086 37.0002H43.6866L48.6006 23.7702L53.5986 37.0002H58.1766L66.2406 16.4622H61.1586L55.9086 30.9942L50.6166 16.4622H46.9206L41.6286 30.9102L36.3786 16.4622H31.0026ZM79.9503 7.39022V37.0002H85.2003V27.8442H85.2843L94.0623 37.0002H100.488L90.5763 26.2902L99.9003 16.4622H93.5583L85.2843 25.1982H85.2003V7.39022H79.9503Z" fill="#212121"/>
<ellipse cx="14.832" cy="35.5451" rx="1.81736" ry="2.89179" transform="rotate(-23.8666 14.832 35.5451)" fill="#212121"/>
<ellipse cx="21.2433" cy="33.3702" rx="1.91418" ry="2.97549" transform="rotate(-22.7007 21.2433 33.3702)" fill="#212121"/>
</svg>
