<svg width="396" height="392" viewBox="0 0 396 392" fill="none" xmlns="http://www.w3.org/2000/svg">
<g opacity="0.15">
<path d="M232.028 88.8712C227.278 95.8493 224.706 104.08 224.636 112.52C224.566 120.96 227.003 129.232 231.635 136.287C236.269 143.343 242.89 148.866 250.663 152.157C258.436 155.447 267.01 156.358 275.301 154.773C283.592 153.189 291.226 149.181 297.237 143.255C303.249 137.33 307.368 129.755 309.073 121.488C310.778 113.221 309.992 104.635 306.814 96.8153C303.637 88.9955 298.211 82.2942 291.223 77.5585C281.87 71.2208 270.384 68.8521 259.286 70.9733C248.188 73.0937 238.385 79.5308 232.028 88.8712Z" fill="#AA55FF"/>
<path d="M192.205 223.046C185.231 218.299 177.005 215.727 168.568 215.655C160.131 215.583 151.863 218.015 144.808 222.642C137.753 227.269 132.228 233.885 128.933 241.652C125.639 249.419 124.721 257.988 126.295 266.277C127.871 274.566 131.868 282.201 137.783 288.218C143.699 294.235 151.264 298.362 159.525 300.079C167.786 301.795 176.37 301.023 184.192 297.861C192.014 294.699 198.722 289.288 203.469 282.314C209.835 272.96 212.225 261.462 210.112 250.347C207.999 239.233 201.558 229.412 192.205 223.046Z" fill="#AA55FF"/>
<path d="M399.449 151.216C392.473 146.469 384.248 143.896 375.811 143.825C367.374 143.753 359.105 146.184 352.05 150.812C344.996 155.439 339.472 162.054 336.176 169.822C332.881 177.588 331.963 186.158 333.539 194.447C335.114 202.735 339.112 210.371 345.026 216.387C350.941 222.404 358.508 226.532 366.768 228.248C375.029 229.965 383.613 229.193 391.435 226.03C399.256 222.869 405.966 217.458 410.713 210.483C417.078 201.131 419.468 189.631 417.355 178.517C415.242 167.402 408.801 157.581 399.449 151.216Z" fill="#AA55FF"/>
<path d="M343.55 0.674236C350.519 5.4378 358.744 8.02641 367.184 8.1135C375.624 8.20058 383.9 5.78174 390.965 1.16289C398.031 -3.45547 403.566 -10.0666 406.872 -17.8327C410.179 -25.5983 411.108 -34.1711 409.54 -42.4653C407.972 -50.7588 403.979 -58.4013 398.066 -64.4247C392.154 -70.4492 384.587 -74.5826 376.323 -76.3043C368.06 -78.0256 359.472 -77.2578 351.646 -74.096C343.819 -70.9347 337.107 -65.5226 332.357 -58.5444C326 -49.204 323.609 -37.7227 325.707 -26.6199C327.806 -15.5179 334.223 -5.70204 343.55 0.674236Z" fill="#AA55FF"/>
<path d="M196.319 58.6161C201.066 51.6408 203.639 43.415 203.711 34.9782C203.782 26.5421 201.351 18.2734 196.724 11.2184C192.096 4.16331 185.481 -1.36044 177.714 -4.65579C169.947 -7.95114 161.377 -8.86888 153.088 -7.29349C144.8 -5.71834 137.165 -1.72078 131.148 4.19428C125.132 10.1093 121.004 17.6755 119.288 25.9356C117.571 34.1964 118.343 42.7805 121.504 50.6021C124.667 58.4242 130.077 65.1334 137.052 69.8803C146.405 76.2461 157.904 78.6352 169.019 76.5233C180.134 74.4102 189.954 67.9687 196.319 58.6161Z" fill="#AA55FF"/>
<path d="M314.763 215.479C310.786 194.2 315.391 172.211 327.571 154.315C339.751 136.418 358.517 124.068 379.772 119.961C388.051 118.371 395.672 114.364 401.675 108.446C407.678 102.526 411.792 94.9624 413.499 86.7065C415.206 78.4518 414.429 69.8756 411.265 62.0619C408.102 54.248 402.695 47.5469 395.725 42.8034C388.756 38.0604 380.539 35.4884 372.109 35.4129C363.68 35.3362 355.416 37.7595 348.364 42.376C341.31 46.9928 335.782 53.5949 332.478 61.3508C329.175 69.1064 328.243 77.6662 329.8 85.9512C331.864 96.5428 331.809 107.439 329.638 118.01C327.466 128.58 323.222 138.616 317.151 147.536C311.079 156.457 303.3 164.087 294.264 169.985C285.227 175.882 275.111 179.93 264.5 181.897C256.222 183.487 248.6 187.495 242.597 193.413C236.595 199.332 232.481 206.896 230.774 215.152C229.066 223.407 229.844 231.983 233.007 239.797C236.17 247.611 241.577 254.312 248.546 259.055C255.516 263.798 263.734 266.37 272.163 266.446C280.593 266.522 288.856 264.099 295.909 259.483C302.963 254.866 308.49 248.264 311.795 240.508C315.098 232.752 316.03 224.192 314.472 215.907L314.763 215.479Z" fill="#AA55FF"/>
<path d="M199.257 166.95C205.521 157.665 207.931 146.309 205.979 135.279C202.002 114 206.606 92.0117 218.786 74.1154C230.966 56.2192 249.732 43.8696 270.987 39.7622C279.266 38.1726 286.888 34.1646 292.89 28.2461C298.893 22.328 303.007 14.7632 304.714 6.50799C306.422 -1.74741 305.644 -10.3229 302.481 -18.1373C299.318 -25.9505 293.91 -32.6528 286.941 -37.3958C279.972 -42.1388 271.754 -44.7101 263.324 -44.7868C254.895 -44.8623 246.632 -42.4397 239.578 -37.8229C232.525 -33.2064 226.997 -26.6035 223.694 -18.8484C220.39 -11.0928 219.458 -2.53232 221.016 5.75198C223.069 16.3355 223.008 27.221 220.835 37.7806C218.662 48.3402 214.421 58.365 208.355 67.2771C202.289 76.1899 194.519 83.8136 185.493 89.7089C176.467 95.6043 166.363 99.6546 155.764 101.626C148.898 102.986 142.472 106.015 137.052 110.446C131.634 114.876 127.388 120.572 124.69 127.032C121.992 133.49 120.926 140.514 121.584 147.483C122.242 154.452 124.605 161.151 128.464 166.991C132.324 172.831 137.56 177.632 143.713 180.969C149.866 184.307 156.746 186.079 163.746 186.129C170.746 186.18 177.65 184.507 183.85 181.258C190.051 178.01 195.357 173.285 199.299 167.502L199.257 166.95Z" fill="#AA55FF"/>
</g>
</svg>
