<svg width="399" height="371" viewBox="0 0 399 371" fill="none" xmlns="http://www.w3.org/2000/svg">
<g opacity="0.15">
<path d="M95.4547 257.253C90.7054 264.231 88.1332 272.461 88.0636 280.902C87.9933 289.342 90.4299 297.613 95.0625 304.669C99.6958 311.725 106.317 317.247 114.09 320.538C121.863 323.828 130.437 324.739 138.728 323.155C147.019 321.571 154.653 317.563 160.664 311.637C166.676 305.712 170.796 298.137 172.5 289.87C174.205 281.603 173.419 273.017 170.241 265.197C167.064 257.377 161.638 250.676 154.651 245.94C145.297 239.602 133.811 237.234 122.713 239.355C111.615 241.475 101.812 247.912 95.4547 257.253Z" fill="#AA55FF"/>
<path d="M55.6323 391.428C48.6577 386.681 40.4319 384.109 31.9951 384.036C23.5578 383.965 15.2898 386.397 8.23523 391.023C1.18016 395.651 -4.3448 402.266 -7.63944 410.034C-10.9343 417.8 -11.852 426.37 -10.2773 434.658C-8.70197 442.947 -4.70439 450.583 1.21066 456.6C7.12572 462.616 14.6912 466.744 22.952 468.46C31.2128 470.177 39.7969 469.405 47.619 466.243C55.441 463.08 62.1496 457.67 66.8964 450.695C73.2622 441.342 75.652 429.844 73.5389 418.729C71.4266 407.614 64.9856 397.794 55.6323 391.428Z" fill="#AA55FF"/>
<path d="M262.876 319.598C255.901 314.85 247.675 312.278 239.238 312.207C230.801 312.135 222.533 314.566 215.478 319.193C208.423 323.82 202.899 330.436 199.603 338.203C196.309 345.97 195.39 354.54 196.966 362.828C198.541 371.117 202.539 378.753 208.454 384.769C214.369 390.785 221.935 394.913 230.195 396.629C238.456 398.346 247.04 397.574 254.862 394.412C262.683 391.25 269.393 385.84 274.14 378.865C280.505 369.512 282.895 358.013 280.783 346.898C278.669 335.783 272.228 325.963 262.876 319.598Z" fill="#AA55FF"/>
<path d="M206.977 169.056C213.946 173.82 222.171 176.408 230.611 176.495C239.051 176.582 247.327 174.164 254.392 169.545C261.458 164.926 266.993 158.315 270.3 150.549C273.606 142.783 274.535 134.211 272.967 125.917C271.399 117.623 267.406 109.981 261.494 103.957C255.581 97.9326 248.014 93.7992 239.751 92.0775C231.488 90.3563 222.899 91.124 215.073 94.2858C207.247 97.4471 200.534 102.859 195.785 109.837C189.428 119.178 187.036 130.659 189.134 141.762C191.233 152.864 197.65 162.68 206.977 169.056Z" fill="#AA55FF"/>
<path d="M59.7461 226.998C64.4934 220.022 67.0658 211.797 67.138 203.36C67.2097 194.924 64.7785 186.655 60.151 179.6C55.5234 172.545 48.9084 167.021 41.1412 163.726C33.374 160.43 24.8045 159.513 16.5155 161.088C8.22766 162.663 0.592307 166.661 -5.42435 172.576C-11.441 178.491 -15.5689 186.057 -17.2851 194.317C-19.0018 202.578 -18.2299 211.162 -15.0683 218.984C-11.906 226.806 -6.49573 233.515 0.478872 238.262C9.83213 244.628 21.3309 247.017 32.446 244.905C43.5609 242.792 53.3808 236.35 59.7461 226.998Z" fill="#AA55FF"/>
<path d="M178.19 383.86C174.213 362.581 178.818 340.592 190.998 322.696C203.178 304.8 221.944 292.45 243.199 288.343C251.478 286.753 259.099 282.745 265.102 276.827C271.105 270.908 275.219 263.344 276.926 255.088C278.633 246.833 277.856 238.257 274.692 230.444C271.53 222.63 266.122 215.928 259.153 211.185C252.184 206.442 243.966 203.87 235.537 203.795C227.107 203.718 218.844 206.141 211.791 210.758C204.737 215.374 199.209 221.977 195.905 229.732C192.602 237.488 191.67 246.048 193.227 254.333C195.291 264.924 195.236 275.821 193.065 286.391C190.893 296.961 186.649 306.997 180.578 315.918C174.507 324.839 166.728 332.468 157.691 338.366C148.654 344.264 138.538 348.312 127.927 350.278C119.649 351.868 112.028 355.876 106.025 361.794C100.022 367.714 95.9079 375.278 94.2008 383.534C92.4935 391.788 93.2708 400.365 96.4346 408.178C99.5972 415.992 105.005 422.693 111.974 427.436C118.943 432.18 127.161 434.752 135.59 434.827C144.02 434.904 152.283 432.481 159.336 427.864C166.39 423.247 171.917 416.645 175.222 408.889C178.525 401.134 179.457 392.573 177.899 384.288L178.19 383.86Z" fill="#AA55FF"/>
<path d="M62.6839 335.332C68.9477 326.047 71.3582 314.69 69.4062 303.661C65.4291 282.382 70.0336 260.393 82.2136 242.497C94.3937 224.601 113.16 212.251 134.414 208.144C142.693 206.554 150.315 202.546 156.317 196.628C162.32 190.71 166.435 183.145 168.141 174.89C169.849 166.634 169.071 158.059 165.908 150.244C162.745 142.431 157.337 135.729 150.368 130.986C143.399 126.243 135.181 123.671 126.752 123.595C118.322 123.519 110.059 125.942 103.005 130.559C95.9525 135.175 90.4246 141.778 87.1207 149.533C83.8176 157.289 82.8851 165.849 84.4428 174.134C86.4965 184.717 86.4354 195.603 84.2624 206.162C82.0895 216.722 77.8478 226.747 71.7823 235.659C65.7163 244.571 57.9466 252.195 48.9204 258.091C39.8943 263.986 29.7903 268.036 19.1917 270.008C12.3255 271.368 5.89891 274.397 0.479665 278.828C-4.93908 283.258 -9.18511 288.953 -11.883 295.413C-14.5805 301.872 -15.6473 308.896 -14.989 315.865C-14.3308 322.834 -11.968 329.533 -8.10838 335.373C-4.24879 341.213 0.987634 346.013 7.14057 349.351C13.2935 352.688 20.1733 354.46 27.1732 354.51C34.1727 354.561 41.0771 352.888 47.2773 349.64C53.4782 346.391 58.7839 341.667 62.7265 335.883L62.6839 335.332Z" fill="#AA55FF"/>
</g>
</svg>
